# Blender 4.0.2
# www.blender.org
mtllib 1x1_brick_plate.mtl
o 1x1_plate_brick
v 0.000000 0.000000 0.000000
v 7.800000 0.000000 0.000000
v 0.000000 0.000000 -7.800000
v 7.800000 0.000000 -7.800000
v 0.000000 3.200000 -7.800000
v 0.000000 3.200000 0.000000
v 7.800000 3.200000 0.000000
v 7.800000 3.200000 -7.800000
v 3.900000 3.198068 -6.300000
v 3.900000 4.898068 -6.300000
v 5.597055 3.198068 -5.597056
v 5.597055 4.898068 -5.597056
v 6.299999 3.198068 -3.900000
v 6.299999 4.898068 -3.900000
v 5.597055 3.198068 -2.202944
v 5.597055 4.898068 -2.202944
v 3.900000 3.198068 -1.500000
v 3.900000 4.898068 -1.500000
v 2.202943 3.198068 -2.202944
v 2.202943 4.898068 -2.202944
v 1.499999 3.198068 -3.900000
v 1.499999 4.898068 -3.900000
v 2.202943 3.198068 -5.597056
v 2.202943 4.898068 -5.597056
vn -0.0000 -1.0000 -0.0000
vn -0.0000 1.0000 -0.0000
vn -0.0000 -0.0000 1.0000
vn 1.0000 -0.0000 -0.0000
vn -1.0000 -0.0000 -0.0000
vn -0.0000 -0.0000 -1.0000
vn 0.3827 -0.0000 -0.9239
vn 0.9239 -0.0000 -0.3827
vn 0.9239 -0.0000 0.3827
vn 0.3827 -0.0000 0.9239
vn -0.3827 -0.0000 0.9239
vn -0.9239 -0.0000 0.3827
vn -0.9239 -0.0000 -0.3827
vn -0.3827 -0.0000 -0.9239
vt 0.000000 1.000000
vt 1.000000 0.000000
vt 0.000000 0.000000
vt 1.000000 1.000000
vt 0.875000 0.500000
vt 1.000000 0.500000
vt 0.875000 1.000000
vt 0.750000 0.500000
vt 0.750000 1.000000
vt 0.625000 0.500000
vt 0.625000 1.000000
vt 0.500000 0.500000
vt 0.500000 1.000000
vt 0.375000 0.500000
vt 0.375000 1.000000
vt 0.250000 0.500000
vt 0.010000 0.250000
vt 0.250000 0.010000
vt 0.490000 0.250000
vt 0.250000 1.000000
vt 0.125000 0.500000
vt 0.125000 1.000000
vt 0.000000 0.500000
vt 0.919706 0.080294
vt 0.580294 0.080294
vt 0.580294 0.419706
vt 0.419706 0.419706
vt 0.250000 0.490000
vt 0.080294 0.419706
vt 0.080294 0.080294
vt 0.419706 0.080294
vt 0.750000 0.490000
vt 0.919706 0.419706
vt 0.990000 0.250000
vt 0.750000 0.010000
vt 0.510000 0.250000
s 0
f 3/1/1 2/2/1 1/3/1
f 7/2/2 5/1/2 6/3/2
f 2/2/3 6/3/3 1/3/3
f 4/4/4 7/2/4 2/2/4
f 1/3/5 5/1/5 3/1/5
f 3/1/6 8/4/6 4/4/6
f 10/4/7 11/5/7 9/6/7
f 12/7/8 13/8/8 11/5/8
f 14/9/9 15/10/9 13/8/9
f 16/11/10 17/12/10 15/10/10
f 18/13/11 19/14/11 17/12/11
f 20/15/12 21/16/12 19/14/12
f 22/17/2 18/18/2 14/19/2
f 22/20/13 23/21/13 21/16/13
f 24/22/14 9/23/14 23/21/14
f 15/24/1 19/25/1 23/26/1
f 3/1/1 4/4/1 2/2/1
f 7/2/2 8/4/2 5/1/2
f 2/2/3 7/2/3 6/3/3
f 4/4/4 8/4/4 7/2/4
f 1/3/5 6/3/5 5/1/5
f 3/1/6 5/1/6 8/4/6
f 10/4/7 12/7/7 11/5/7
f 12/7/8 14/9/8 13/8/8
f 14/9/9 16/11/9 15/10/9
f 16/11/10 18/13/10 17/12/10
f 18/13/11 20/15/11 19/14/11
f 20/15/12 22/20/12 21/16/12
f 14/19/2 12/27/2 10/28/2
f 10/28/2 24/29/2 22/17/2
f 22/17/2 20/30/2 18/18/2
f 18/18/2 16/31/2 14/19/2
f 14/19/2 10/28/2 22/17/2
f 22/20/13 24/22/13 23/21/13
f 24/22/14 10/1/14 9/23/14
f 23/26/1 9/32/1 11/33/1
f 11/33/1 13/34/1 15/24/1
f 15/24/1 17/35/1 19/25/1
f 19/25/1 21/36/1 23/26/1
f 23/26/1 11/33/1 15/24/1
