<?xml version="1.0" encoding="UTF-8" standalone="no"?>
<svg
   version="1.1"
   x="0px"
   y="0px"
   viewBox="0 0 100 100"
   enable-background="new 0 0 100 100"
   xml:space="preserve"
   id="svg8"
   sodipodi:docname="noun-lego-brick-946075.svg"
   inkscape:export-filename="../c46846b8/bobo.svg"
   inkscape:export-xdpi="96"
   inkscape:export-ydpi="96"
   inkscape:version="1.4.2 (2aeb623e1d, 2025-05-12)"
   width="100"
   height="100"
   xmlns:inkscape="http://www.inkscape.org/namespaces/inkscape"
   xmlns:sodipodi="http://sodipodi.sourceforge.net/DTD/sodipodi-0.dtd"
   xmlns="http://www.w3.org/2000/svg"
   xmlns:svg="http://www.w3.org/2000/svg"><defs
     id="defs8" /><sodipodi:namedview
     id="namedview8"
     pagecolor="#ffffff"
     bordercolor="#000000"
     borderopacity="0.25"
     inkscape:showpageshadow="2"
     inkscape:pageopacity="0.0"
     inkscape:pagecheckerboard="0"
     inkscape:deskcolor="#d1d1d1"
     inkscape:zoom="6.264"
     inkscape:cx="62.659642"
     inkscape:cy="55.15645"
     inkscape:window-width="1920"
     inkscape:window-height="991"
     inkscape:window-x="1920"
     inkscape:window-y="0"
     inkscape:window-maximized="1"
     inkscape:current-layer="svg8" /><polygon
     fill="currentColor"
     points="64.624,30.442 65.774,31.668 67.496,32.724 69.649,33.488 72.078,33.856 74.635,33.856 77.07,33.447 79.23,32.679 80.91,31.664 82.053,30.447 82.597,29.206 82.58,27.94 82.034,26.693 80.893,25.515 79.162,24.454 77.01,23.689 74.581,23.321 72.025,23.321 69.592,23.73 67.446,24.5 65.749,25.514 64.611,26.727 64.081,27.973 64.081,29.238 "
     id="polygon1"
     inkscape:export-filename="../7dcb7073/sdfsdf.svg"
     inkscape:export-xdpi="96"
     inkscape:export-ydpi="96" /><path
     fill="currentColor"
     d="m 82.169,33.207 c -0.038,0.032 -0.064,0.073 -0.108,0.1 l -1.881,1.137 c -0.045,0.026 -0.092,0.04 -0.138,0.059 -0.017,0.007 -0.027,0.021 -0.045,0.027 l -2.34,0.832 c -0.033,0.012 -0.066,0.009 -0.1,0.018 -0.024,0.006 -0.044,0.022 -0.069,0.026 l -2.604,0.438 c -0.056,0.009 -0.111,0.014 -0.165,0.014 -10e-4,0 -10e-4,0 -10e-4,0 h -2.713 c 0,0 0,0 -10e-4,0 -0.05,0 -0.099,-0.004 -0.149,-0.012 l -2.602,-0.395 c -0.027,-0.004 -0.048,-0.021 -0.074,-0.026 -0.037,-0.009 -0.074,-0.007 -0.111,-0.02 l -2.34,-0.831 c -0.019,-0.007 -0.03,-0.021 -0.048,-0.028 -0.048,-0.02 -0.097,-0.034 -0.142,-0.062 L 64.614,33.303 C 64.572,33.278 64.547,33.238 64.51,33.207 64.477,33.18 64.437,33.167 64.406,33.135 l -0.327,-0.349 v 1.335 l 0.547,1.248 1.141,1.214 1.72,1.016 2.167,0.771 2.427,0.408 2.558,-0.042 2.439,-0.37 2.147,-0.763 1.676,-1.052 1.15,-1.226 0.547,-1.248 v -1.29 l -0.326,0.348 c -0.03,0.032 -0.07,0.045 -0.103,0.072 z"
     id="path1" /><path
     fill="currentColor"
     d="m 46.807,8.125 c 0.024,-0.002 0.045,-0.016 0.07,-0.016 L 48.386,8.085 46.621,7.153 44.83,8.426 46.736,8.122 c 0.024,-0.004 0.047,0.005 0.071,0.003 z"
     id="path2" /><path
     fill="currentColor"
     d="m 84.398,27.104 0.096,0.219 v 0.001 c 0.039,0.088 0.051,0.188 0.062,0.286 0.004,0.034 0.021,0.068 0.021,0.103 l 0.021,1.684 c 0,0.002 -0.001,0.004 -0.001,0.007 0,0.002 0.001,0.004 0.001,0.006 v 0.012 c 0,10e-4 0,0.002 0,0.003 v 4.863 c 0,0.002 -0.001,0.004 -0.001,0.006 -10e-4,0.067 -0.026,0.133 -0.041,0.2 -0.014,0.063 -0.016,0.131 -0.041,0.189 -0.001,0.002 0,0.004 -0.001,0.006 l -0.699,1.597 c -0.045,0.103 -0.107,0.19 -0.178,0.269 -0.004,0.005 -0.005,0.011 -0.01,0.015 l -1.355,1.444 c -0.03,0.031 -0.069,0.044 -0.102,0.071 -0.035,0.028 -0.058,0.066 -0.097,0.091 l -1.882,1.181 c -0.046,0.029 -0.097,0.044 -0.145,0.064 -0.02,0.009 -0.032,0.024 -0.052,0.031 l -2.34,0.832 c -0.037,0.013 -0.075,0.011 -0.112,0.02 -0.026,0.006 -0.047,0.022 -0.073,0.026 l -2.604,0.394 c -0.042,0.007 -0.083,0.009 -0.124,0.01 -0.003,0 -0.006,0.002 -0.01,0.002 l -2.713,0.044 c -0.005,0 -0.01,0 -0.016,0 -10e-4,0 -10e-4,0 -0.002,0 -0.054,0 -0.109,-0.005 -0.164,-0.014 L 69.233,40.328 C 69.207,40.324 69.187,40.307 69.163,40.301 69.13,40.293 69.098,40.296 69.064,40.284 L 66.723,39.452 C 66.705,39.446 66.695,39.431 66.677,39.425 66.635,39.407 66.591,39.396 66.55,39.371 l -1.926,-1.137 c -0.045,-0.026 -0.072,-0.068 -0.111,-0.101 -0.035,-0.028 -0.077,-0.042 -0.109,-0.076 l -1.355,-1.444 c -0.005,-0.005 -0.006,-0.011 -0.01,-0.015 -0.071,-0.078 -0.133,-0.166 -0.178,-0.269 l -0.7,-1.597 C 62.16,34.73 62.16,34.728 62.16,34.726 62.135,34.667 62.133,34.6 62.119,34.537 c -0.015,-0.066 -0.041,-0.133 -0.041,-0.2 0,-0.002 -0.001,-0.004 -0.001,-0.006 V 32.69 29.453 27.768 c 0,0 0,0 0,-0.001 0,-0.074 0.028,-0.148 0.046,-0.224 0.013,-0.055 0.012,-0.115 0.033,-0.166 v -10e-4 l 0.68,-1.597 c 0.023,-0.057 0.067,-0.097 0.101,-0.146 0.031,-0.049 0.05,-0.103 0.091,-0.146 l 1.355,-1.444 c 0.033,-0.035 0.076,-0.051 0.113,-0.08 0.036,-0.03 0.061,-0.069 0.103,-0.094 l 1.903,-1.137 c 0.028,-0.018 0.061,-0.018 0.09,-0.032 0.031,-0.014 0.053,-0.039 0.085,-0.051 L 69,21.817 c 0.029,-0.011 0.06,-0.005 0.089,-0.013 0.029,-0.008 0.053,-0.027 0.083,-0.032 l 2.603,-0.438 c 0.028,-0.005 0.055,0.005 0.083,0.003 0.028,-0.002 0.054,-0.017 0.083,-0.017 h 1.507 l -14.133,-7.465 0.111,0.255 c 10e-4,0.002 0,0.004 10e-4,0.006 0.025,0.059 0.028,0.126 0.042,0.189 0.014,0.067 0.039,0.133 0.04,0.2 0,0.002 10e-4,0.004 10e-4,0.006 v 1.637 c 0,0.001 0,0.002 0,0.003 v 0.001 4.922 c 0,0 0,0 0,10e-4 0,0.075 -0.028,0.15 -0.046,0.226 -0.013,0.055 -0.013,0.113 -0.033,0.164 -10e-4,0 -10e-4,0.001 -10e-4,0.001 l -0.678,1.597 c -0.045,0.104 -0.106,0.193 -0.178,0.272 -0.004,0.005 -0.005,0.011 -0.009,0.015 l -1.334,1.443 c -0.03,0.033 -0.072,0.047 -0.106,0.075 -0.039,0.032 -0.066,0.075 -0.111,0.103 l -1.926,1.159 c -0.039,0.024 -0.082,0.035 -0.124,0.054 -0.017,0.007 -0.028,0.021 -0.046,0.028 l -2.32,0.854 c -0.035,0.014 -0.072,0.011 -0.107,0.02 -0.028,0.007 -0.051,0.024 -0.08,0.029 l -2.602,0.416 c -0.052,0.009 -0.105,0.013 -0.157,0.013 0,0 0,0 -10e-4,0 H 46.96 c 0,0 0,0 -10e-4,0 -0.052,0 -0.104,-0.004 -0.157,-0.013 l -2.603,-0.416 c -0.026,-0.004 -0.045,-0.021 -0.07,-0.026 -0.035,-0.008 -0.07,-0.005 -0.104,-0.018 L 41.663,26.24 c -0.019,-0.007 -0.031,-0.021 -0.049,-0.029 -0.049,-0.021 -0.1,-0.035 -0.146,-0.064 l -1.903,-1.182 c -0.037,-0.022 -0.058,-0.059 -0.09,-0.085 -0.032,-0.025 -0.071,-0.038 -0.101,-0.068 l -1.356,-1.399 c -0.006,-0.006 -0.007,-0.015 -0.013,-0.021 -0.074,-0.08 -0.139,-0.169 -0.185,-0.274 l -0.7,-1.598 v -0.001 c -0.038,-0.087 -0.049,-0.185 -0.062,-0.282 -0.004,-0.035 -0.022,-0.07 -0.022,-0.106 l -0.021,-1.683 c 0,-0.004 0.002,-0.007 0.002,-0.01 0,-0.004 -0.002,-0.006 -0.002,-0.01 l 0.021,-3.218 v -0.001 -0.007 l -0.021,-1.634 c 0,-0.004 0.002,-0.008 0.002,-0.012 0,-0.064 0.023,-0.128 0.037,-0.192 0.013,-0.067 0.017,-0.137 0.043,-0.198 10e-4,-0.004 0,-0.008 0.002,-0.012 l 0.149,-0.341 -14.004,9.947 1.901,-0.304 c 0.028,-0.005 0.053,0.005 0.081,0.003 0.027,-0.002 0.05,-0.016 0.077,-0.016 h 2.669 c 0.028,0 0.052,0.014 0.079,0.016 0.027,0.002 0.052,-0.007 0.079,-0.003 l 2.604,0.416 c 0.029,0.005 0.052,0.022 0.08,0.03 0.029,0.007 0.058,10e-4 0.086,0.011 l 2.362,0.81 c 0.035,0.012 0.06,0.039 0.093,0.055 0.033,0.015 0.068,0.017 0.099,0.035 l 1.925,1.159 c 0.042,0.025 0.066,0.064 0.103,0.095 0.037,0.03 0.082,0.047 0.115,0.083 l 1.335,1.443 c 0.038,0.041 0.054,0.092 0.084,0.138 0.029,0.044 0.07,0.078 0.093,0.129 l 0.722,1.597 c 0.002,0.004 10e-4,0.008 0.002,0.012 0.027,0.061 0.031,0.13 0.045,0.196 0.014,0.064 0.038,0.128 0.039,0.192 0,0.004 0.002,0.008 0.002,0.012 v 1.641 0.012 c 0,0.001 0,0.002 0,0.003 v 4.907 c 0,0.002 -10e-4,0.004 -10e-4,0.006 0,0.067 -0.026,0.134 -0.041,0.2 -0.014,0.063 -0.016,0.131 -0.041,0.189 0,0.002 0,0.004 -10e-4,0.006 l -0.7,1.598 c -0.045,0.102 -0.106,0.189 -0.177,0.268 -0.004,0.005 -0.005,0.011 -0.01,0.016 l -1.334,1.422 c -0.031,0.032 -0.071,0.046 -0.105,0.073 -0.037,0.03 -0.062,0.071 -0.104,0.097 l -1.903,1.159 c -0.042,0.025 -0.088,0.038 -0.132,0.057 -0.017,0.008 -0.028,0.022 -0.045,0.028 l -2.341,0.853 c -0.036,0.013 -0.072,0.011 -0.107,0.019 -0.027,0.007 -0.049,0.024 -0.078,0.029 l -2.604,0.416 c -0.053,0.009 -0.105,0.013 -0.157,0.013 0,0 -0.001,0 -0.001,0 h -2.69 c 0,0 0,0 -0.001,0 -0.052,0 -0.104,-0.004 -0.156,-0.013 l -2.625,-0.416 c -0.025,-0.004 -0.044,-0.02 -0.068,-0.025 -0.035,-0.008 -0.07,-0.006 -0.104,-0.018 L 20.075,41.6 c -0.018,-0.006 -0.029,-0.021 -0.046,-0.027 -0.047,-0.02 -0.096,-0.033 -0.141,-0.061 l -1.925,-1.16 C 17.92,40.326 17.894,40.286 17.856,40.254 17.822,40.227 17.781,40.213 17.75,40.18 l -1.335,-1.422 c -0.003,-0.004 -0.004,-0.009 -0.008,-0.013 -0.07,-0.077 -0.131,-0.164 -0.176,-0.265 l -0.722,-1.618 c -0.001,-0.003 -0.001,-0.006 -0.002,-0.008 -0.027,-0.062 -0.031,-0.135 -0.045,-0.202 -0.013,-0.063 -0.038,-0.125 -0.038,-0.188 0,-0.004 -0.002,-0.007 -0.002,-0.01 v -1.619 -3.281 -1.662 c 0,-0.057 0.024,-0.111 0.034,-0.168 0.013,-0.075 0.017,-0.154 0.046,-0.224 l 0.146,-0.343 -10.402,7.39 47.464,25.035 c 0.333,-0.119 0.693,-0.056 0.964,0.171 L 94.756,32.575 Z M 62.987,44.743 v 0 0.002 4.873 c 0,10e-4 0,10e-4 0,0.002 v 0.002 c 0,0.06 -0.024,0.11 -0.034,0.167 -0.012,0.073 -0.014,0.147 -0.043,0.22 l -0.002,0.002 c 0,10e-4 0,10e-4 0,10e-4 l -0.676,1.615 c -0.046,0.108 -0.111,0.2 -0.186,0.282 -0.006,0.007 -0.008,0.015 -0.014,0.021 l -1.356,1.422 c -0.028,0.03 -0.066,0.042 -0.098,0.067 -0.033,0.027 -0.054,0.064 -0.092,0.088 l -1.903,1.203 c -0.051,0.032 -0.105,0.05 -0.159,0.071 -0.019,0.007 -0.03,0.022 -0.048,0.028 l -2.342,0.81 c -0.03,0.011 -0.062,0.008 -0.092,0.016 -0.021,0.005 -0.039,0.02 -0.061,0.023 l -2.603,0.459 c -0.059,0.011 -0.116,0.016 -0.173,0.016 h -10e-4 -2.69 c 0,0 0,0 -0.001,0 -0.057,0 -0.114,-0.005 -0.173,-0.016 L 47.636,55.658 C 47.615,55.654 47.599,55.64 47.578,55.636 47.547,55.628 47.516,55.63 47.486,55.62 l -2.362,-0.81 c -0.018,-0.006 -0.029,-0.021 -0.046,-0.027 -0.05,-0.021 -0.102,-0.035 -0.149,-0.064 L 43.026,53.56 C 42.983,53.534 42.957,53.493 42.92,53.461 42.887,53.435 42.848,53.421 42.818,53.39 l -1.356,-1.443 c -0.003,-0.003 -0.004,-0.008 -0.007,-0.011 -0.07,-0.076 -0.131,-0.162 -0.176,-0.262 l -0.722,-1.598 c -0.002,-0.004 -0.001,-0.008 -0.003,-0.012 -0.026,-0.061 -0.03,-0.13 -0.045,-0.196 -0.014,-0.064 -0.038,-0.128 -0.039,-0.192 0,-0.004 -0.002,-0.008 -0.002,-0.012 v -1.641 -3.237 -1.685 c 0,-0.002 10e-4,-0.004 10e-4,-0.006 0,-0.067 0.026,-0.133 0.041,-0.2 0.014,-0.063 0.016,-0.131 0.042,-0.189 0,-0.002 0,-0.004 10e-4,-0.006 l 0.7,-1.597 c 0.022,-0.051 0.062,-0.085 0.092,-0.131 0.033,-0.051 0.051,-0.106 0.094,-0.152 l 1.334,-1.422 c 0.032,-0.034 0.075,-0.05 0.11,-0.078 0.035,-0.028 0.059,-0.067 0.099,-0.092 l 1.903,-1.159 c 0.032,-0.02 0.069,-0.021 0.103,-0.037 0.033,-0.016 0.056,-0.042 0.091,-0.054 l 2.341,-0.81 c 0.027,-0.009 0.054,-0.004 0.081,-0.011 0.025,-0.007 0.046,-0.023 0.072,-0.028 l 2.603,-0.459 c 0.03,-0.006 0.059,0.004 0.088,0.002 0.03,-0.003 0.055,-0.018 0.085,-0.018 h 2.691 c 0.028,0 0.052,0.014 0.079,0.016 0.026,0.002 0.051,-0.007 0.077,-0.003 l 2.625,0.415 c 0.029,0.005 0.052,0.022 0.08,0.03 0.03,0.007 0.061,10e-4 0.091,0.012 l 2.34,0.81 c 0.038,0.014 0.064,0.042 0.101,0.059 0.035,0.018 0.072,0.02 0.106,0.041 l 1.903,1.203 c 0.036,0.022 0.057,0.059 0.088,0.085 0.033,0.026 0.072,0.039 0.102,0.07 l 1.356,1.422 c 0.04,0.042 0.058,0.095 0.089,0.142 0.03,0.044 0.071,0.078 0.094,0.128 l 0.723,1.554 c 0.002,0.005 0.001,0.01 0.003,0.015 0.028,0.062 0.033,0.132 0.048,0.199 0.014,0.064 0.037,0.127 0.039,0.19 0,0.006 0.003,0.011 0.003,0.017 z"
     id="path3" /><polygon
     fill="currentColor"
     points="45.835,39.835 44.14,40.867 43.016,42.065 42.469,43.312 42.469,44.571 43.03,45.814 44.178,46.999 45.885,48.059 48.061,48.824 50.494,49.212 53.021,49.212 55.451,48.783 57.621,48.013 59.321,46.997 60.459,45.787 60.987,44.54 60.987,43.279 60.43,42.078 59.271,40.864 57.569,39.788 55.418,39.044 52.965,38.656 50.435,38.656 48.002,39.085 "
     id="polygon3" /><polygon
     fill="currentColor"
     points="95.659,34.387 54.479,63.635 54.479,90.645 95.659,61.334 "
     id="polygon4" /><polygon
     fill="currentColor"
     points="52.006,20.233 54.139,19.488 55.855,18.416 56.979,17.218 57.51,15.952 57.51,14.723 56.965,13.479 55.82,12.279 54.121,11.244 51.954,10.494 49.53,10.067 46.979,10.108 44.537,10.498 42.382,11.243 40.689,12.294 39.562,13.514 39.016,14.759 39.031,15.98 39.582,17.235 40.725,18.452 42.421,19.485 44.611,20.236 47.036,20.664 49.565,20.623 "
     id="polygon5" /><path
     fill="currentColor"
     d="m 60.577,48.542 c -0.039,0.032 -0.066,0.074 -0.11,0.101 l -1.904,1.138 c -0.042,0.025 -0.088,0.038 -0.133,0.057 -0.017,0.007 -0.027,0.021 -0.045,0.027 l -2.342,0.831 c -0.031,0.011 -0.062,0.009 -0.095,0.017 -0.023,0.006 -0.042,0.021 -0.065,0.025 l -2.603,0.459 c -0.059,0.011 -0.116,0.016 -0.173,0.016 h -10e-4 -2.69 c 0,0 0,0 -10e-4,0 -0.051,0 -0.104,-0.004 -0.156,-0.013 L 47.655,50.785 C 47.63,50.781 47.61,50.764 47.585,50.759 47.55,50.751 47.515,50.754 47.48,50.741 L 45.118,49.91 C 45.099,49.903 45.087,49.889 45.069,49.881 45.02,49.86 44.969,49.845 44.923,49.817 L 43.02,48.635 C 42.982,48.612 42.96,48.574 42.927,48.547 42.896,48.523 42.858,48.51 42.829,48.481 l -0.36,-0.371 v 1.341 l 0.565,1.251 1.147,1.221 1.696,1.033 2.19,0.751 2.434,0.429 h 2.521 l 2.433,-0.429 2.159,-0.747 1.701,-1.076 1.145,-1.198 0.528,-1.263 v -1.277 l -0.306,0.325 c -0.031,0.03 -0.072,0.044 -0.105,0.071 z"
     id="path5" /><path
     fill="currentColor"
     d="m 39.578,22.148 1.147,1.184 1.704,1.058 2.176,0.766 2.433,0.389 h 2.535 l 2.426,-0.388 2.14,-0.787 1.722,-1.037 1.119,-1.211 0.531,-1.25 v -1.295 l -0.283,0.302 c -0.029,0.031 -0.069,0.044 -0.102,0.071 -0.035,0.028 -0.059,0.067 -0.098,0.092 l -1.925,1.203 c -0.048,0.03 -0.101,0.046 -0.151,0.067 -0.018,0.007 -0.03,0.022 -0.049,0.029 l -2.32,0.81 c -0.033,0.012 -0.068,0.01 -0.104,0.018 -0.023,0.006 -0.043,0.021 -0.068,0.025 l -2.602,0.416 c -0.044,0.007 -0.088,0.01 -0.131,0.011 -0.004,0 -0.007,0.002 -0.01,0.002 l -2.691,0.043 c -0.005,0 -0.011,0 -0.017,0 0,0 0,0 -10e-4,0 -0.057,0 -0.114,-0.005 -0.172,-0.016 l -2.603,-0.459 c -0.021,-0.004 -0.037,-0.018 -0.058,-0.022 -0.031,-0.008 -0.062,-0.006 -0.092,-0.016 l -2.362,-0.81 c -0.018,-0.006 -0.029,-0.021 -0.046,-0.027 -0.05,-0.021 -0.102,-0.035 -0.149,-0.064 l -1.903,-1.159 c -0.043,-0.026 -0.069,-0.067 -0.106,-0.099 -0.033,-0.026 -0.072,-0.04 -0.102,-0.071 l -0.348,-0.37 0.017,1.351 z"
     id="path6" /><polygon
     fill="currentColor"
     points="32.545,34.824 34.242,33.751 35.372,32.547 35.919,31.299 35.919,30.084 35.353,28.831 34.225,27.611 32.514,26.581 30.33,25.833 27.894,25.443 25.381,25.443 22.946,25.833 20.796,26.576 19.094,27.652 17.948,28.854 17.422,30.094 17.422,31.337 17.986,32.586 19.113,33.786 20.83,34.821 22.973,35.568 25.436,36 27.952,36 30.386,35.57 "
     id="polygon6" /><polygon
     fill="currentColor"
     points="52.479,63.722 4.341,38.33 4.341,65.512 52.479,90.925 "
     id="polygon7" /><path
     fill="currentColor"
     d="m 19.113,38.708 1.717,1.035 2.139,0.746 2.455,0.389 h 2.536 l 2.429,-0.388 2.156,-0.785 1.704,-1.038 1.124,-1.198 0.547,-1.248 v -1.333 l -0.305,0.325 c -0.029,0.03 -0.067,0.043 -0.1,0.069 -0.034,0.029 -0.057,0.067 -0.096,0.092 l -1.903,1.203 c -0.051,0.032 -0.105,0.05 -0.159,0.071 -0.018,0.007 -0.03,0.021 -0.048,0.028 l -2.341,0.809 c -0.031,0.011 -0.062,0.008 -0.093,0.016 -0.021,0.005 -0.038,0.02 -0.06,0.023 l -2.604,0.46 C 28.153,37.995 28.095,38 28.038,38 c 0,0 -0.001,0 -0.001,0 h -2.69 c 0,0 0,0 -0.001,0 -0.057,0 -0.114,-0.005 -0.171,-0.015 L 22.55,37.525 C 22.526,37.521 22.508,37.505 22.485,37.5 22.454,37.492 22.423,37.495 22.393,37.484 l -2.318,-0.809 c -0.018,-0.006 -0.029,-0.021 -0.046,-0.027 -0.047,-0.02 -0.096,-0.033 -0.141,-0.061 l -1.925,-1.16 C 17.92,35.401 17.894,35.361 17.856,35.329 17.822,35.302 17.781,35.288 17.75,35.255 l -0.328,-0.349 v 1.334 l 0.565,1.268 z"
     id="path7" /></svg>
